<svg width="6" height="8" viewBox="0 0 6 8" fill="none" xmlns="http://www.w3.org/2000/svg">
<path fill-rule="evenodd" clip-rule="evenodd" d="M1.09305 7.66954C0.892166 7.45588 0.892166 7.10947 1.09305 6.89581L3.81573 4L1.09305 1.10419C0.892166 0.890532 0.892166 0.544119 1.09305 0.330459C1.29394 0.116798 1.61964 0.116798 1.82053 0.330459L4.90695 3.61313C5.10784 3.82679 5.10784 4.17321 4.90695 4.38687L1.82053 7.66954C1.61964 7.8832 1.29394 7.8832 1.09305 7.66954Z" fill="#77818C"/>
<path fill-rule="evenodd" clip-rule="evenodd" d="M4.90695 4.38687C5.10784 4.17321 5.10784 3.82679 4.90695 3.61313L1.82053 0.330459C1.61964 0.116798 1.29394 0.116798 1.09305 0.330459C0.892166 0.544119 0.892166 0.890532 1.09305 1.10419L3.81573 4L1.09305 6.89581C0.892166 7.10947 0.892166 7.45588 1.09305 7.66954C1.29394 7.8832 1.61964 7.8832 1.82053 7.66954L4.90695 4.38687ZM3.58615 4L0.975029 6.77716C0.712028 7.05688 0.712028 7.50847 0.975029 7.78819C1.24055 8.0706 1.67303 8.0706 1.93855 7.78819L5.02497 4.50552C5.28797 4.22579 5.28797 3.77421 5.02497 3.49448L1.93855 0.211807C1.67303 -0.0706026 1.24055 -0.0706026 0.975029 0.211807C0.712028 0.49153 0.712028 0.94312 0.975029 1.22284L3.58615 4Z" fill="#77818C"/>
</svg>
